<svg width="135" height="135" viewBox="0 0 135 135" fill="none" xmlns="http://www.w3.org/2000/svg">
<g clip-path="url(#clip0_3083_8476)">
<path d="M48.1516 20.7563C42.0095 23.2988 36.4283 27.0259 31.7266 31.7251" stroke="#34C759" stroke-width="7" stroke-linecap="round" stroke-linejoin="round"/>
<path d="M20.7563 48.1499C18.2056 54.2828 16.8868 60.8577 16.875 67.4999" stroke="#34C759" stroke-width="7" stroke-linecap="round" stroke-linejoin="round"/>
<path d="M20.7578 86.8501C23.3002 92.9921 27.0274 98.5733 31.7266 103.275" stroke="#34C759" stroke-width="7" stroke-linecap="round" stroke-linejoin="round"/>
<path d="M48.1484 114.244C54.2814 116.794 60.8563 118.113 67.4984 118.125" stroke="#34C759" stroke-width="7" stroke-linecap="round" stroke-linejoin="round"/>
<path d="M86.8516 114.244C92.9936 111.701 98.5748 107.974 103.277 103.275" stroke="#34C759" stroke-width="7" stroke-linecap="round" stroke-linejoin="round"/>
<path d="M114.242 86.85C116.793 80.7171 118.112 74.1422 118.123 67.5" stroke="#34C759" stroke-width="7" stroke-linecap="round" stroke-linejoin="round"/>
<path d="M114.242 48.1501C111.7 42.0081 107.973 36.4269 103.273 31.7251" stroke="#34C759" stroke-width="7" stroke-linecap="round" stroke-linejoin="round"/>
<path d="M86.85 20.7563C80.7171 18.2056 74.1422 16.8868 67.5 16.875" stroke="#34C759" stroke-width="7" stroke-linecap="round" stroke-linejoin="round"/>
<path d="M50.625 67.5L61.875 78.75L84.375 56.25" stroke="#34C759" stroke-width="7" stroke-linecap="round" stroke-linejoin="round"/>
</g>
<defs>
<clipPath id="clip0_3083_8476">
<rect width="135" height="135" fill="white"/>
</clipPath>
</defs>
</svg>
