<svg width="24" height="24" viewBox="0 0 24 24" fill="none" xmlns="http://www.w3.org/2000/svg">
<path d="M18.75 0H5.25C4.65326 0 4.08095 0.237063 3.659 0.659019C3.23704 1.08098 3 1.65326 3 2.25V24H21V2.25C21 1.65326 20.763 1.08098 20.341 0.659019C19.919 0.237063 19.3467 0 18.75 0ZM10.5 22.5V18H13.5V22.5H10.5ZM19.5 22.5H15V17.25C15 17.0511 14.921 16.8603 14.7803 16.7197C14.6397 16.579 14.4489 16.5 14.25 16.5H9.75C9.55109 16.5 9.36033 16.579 9.21968 16.7197C9.07903 16.8603 9 17.0511 9 17.25V22.5H4.5V2.25C4.5 2.05109 4.57903 1.86033 4.71968 1.71968C4.86033 1.57903 5.05109 1.5 5.25 1.5H18.75C18.9489 1.5 19.1397 1.57903 19.2803 1.71968C19.421 1.86033 19.5 2.05109 19.5 2.25V22.5ZM7.5 4.5H10.5V7.5H7.5V4.5ZM13.5 4.5H16.5V7.5H13.5V4.5ZM7.5 10.5H10.5V13.5H7.5V10.5ZM13.5 10.5H16.5V13.5H13.5V10.5Z" fill="black"/>
</svg>
