<svg width="24" height="24" viewBox="0 0 24 24" fill="none" xmlns="http://www.w3.org/2000/svg">
<path fill-rule="evenodd" clip-rule="evenodd" d="M19.3147 3.72227C18.3517 2.75924 16.7903 2.75924 15.8273 3.72227L4.18979 15.3598C3.84554 15.704 3.61088 16.1425 3.51541 16.6198L3.03284 19.0327C2.80277 20.183 3.81698 21.1972 4.96732 20.9672L7.38016 20.4846C7.85755 20.3891 8.296 20.1545 8.64025 19.8102L20.2777 8.17272C21.2408 7.2097 21.2408 5.64833 20.2777 4.68529L19.3147 3.72227ZM16.9897 4.88474C17.3108 4.56374 17.8312 4.56374 18.1523 4.88474L19.1152 5.84778C19.4363 6.16878 19.4363 6.68924 19.1152 7.01025L16.9192 9.20628L14.7938 7.08078L16.9897 4.88474ZM13.6312 8.24326L5.35227 16.5222C5.23752 16.637 5.1593 16.7831 5.12748 16.9423L4.64491 19.3551L7.05775 18.8725C7.21688 18.8407 7.36303 18.7625 7.47778 18.6477L15.7567 10.3688L13.6312 8.24326Z" fill="white"/>
</svg>
