<svg width="242" height="275" viewBox="0 0 242 275" fill="none" xmlns="http://www.w3.org/2000/svg">
<path d="M38.4492 249.789L117.419 224.961V123.169L38.4492 147.805V249.789Z" fill="#D5DAE5"/>
<path d="M196.387 249.789L117.418 224.961V123.169L196.387 147.805V249.789Z" fill="#F1F3FA"/>
<path opacity="0.6" d="M196.387 249.789L117.418 224.961V123.169L196.387 147.805V249.789Z" fill="#AAB2C5"/>
<g opacity="0.13">
<path d="M38.4492 249.789L117.419 224.961V123.169L38.4492 147.805V249.789Z" fill="url(#paint0_linear_10098_86658)"/>
<path d="M196.388 249.789L117.419 224.961V123.169L196.388 147.805V249.789Z" fill="url(#paint1_linear_10098_86658)"/>
</g>
<path d="M117.419 274.806L38.4492 249.979V148.186L117.419 173.013V274.806Z" fill="#F1F3FA"/>
<path d="M117.418 274.806L196.387 249.979V148.186L117.418 173.013V274.806Z" fill="#D5DAE5"/>
<path opacity="0.09" d="M99.5264 256.854L38.4492 249.979V148.186L117.419 173.013L99.5264 256.854Z" fill="url(#paint2_linear_10098_86658)"/>
<path opacity="0.2" d="M135.31 238.902L196.387 249.979V148.186L117.418 173.013L135.31 238.902Z" fill="url(#paint3_linear_10098_86658)"/>
<path d="M117.417 123.168L80.2887 95.2852L0 122.404L38.4481 147.805L117.417 123.168Z" fill="#D5DAE5"/>
<path d="M117.418 123.168L154.547 95.2852L234.835 122.404L196.387 147.805L117.418 123.168Z" fill="#D5DAE5"/>
<path d="M38.4481 148.186L117.417 173.013L78.027 198.223L0 172.25L38.4481 148.186Z" fill="#F1F3FA"/>
<path d="M196.387 148.186L117.418 173.013L156.808 198.223L234.835 172.25L196.387 148.186Z" fill="#F1F3FA"/>
<path d="M139.45 25.4441C150.513 55.5688 153.811 62.2623 154.893 91.946C154.477 98.7218 154.219 106.09 151.035 112.023C146.783 121.098 136.383 127.384 126.557 127.486C116.435 127.667 106.511 121.449 102.045 111.86C98.902 106.04 99.002 98.0802 103.313 92.7965C107.999 87.7292 116.243 86.4657 122.174 89.632C128.697 92.6389 132.591 98.8911 134.034 105.485C135.476 112.078 134.842 119.23 133.082 125.732C129.4 141.547 126.35 142.312 117.321 169.087" stroke="#AAB2C5" stroke-width="2" stroke-miterlimit="10" stroke-dasharray="4 4"/>
<path d="M152.915 9.49716C152.889 13.9268 148.78 16.6391 143.57 15.2247C138.085 14.2865 134.202 13.3195 133.952 9.36599C134.078 5.31151 138.487 3.72465 143.647 1.93584C149.835 -0.53106 152.564 5.1685 152.915 9.49716Z" fill="#D5DAE5"/>
<path d="M117.467 23.044C120.247 25.9156 126.108 26.7529 128.964 22.3667C132.096 17.5044 134.777 13.9695 131.897 10.7229C129.117 7.85134 126.411 9.78461 120.224 12.2515C115.264 14.7906 114.211 19.8983 117.467 23.044Z" fill="#D5DAE5"/>
<path d="M130.298 4.72124C132.828 3.63926 135.859 4.43305 137.211 6.48203C137.787 7.13136 138.463 8.15586 138.664 8.90617C140.817 13.9564 140.14 18.9631 137.234 20.1461C134.053 21.8052 129.67 18.9624 127.992 14.1864C127.591 12.6857 127.391 11.9354 127.091 10.81C126.765 8.0829 127.768 5.80322 130.298 4.72124C130.674 4.62026 130.298 4.72124 130.298 4.72124Z" fill="#AAB2C5"/>
<path d="M13.9945 86.0175H9.09644V81.103H4.89808V86.0175H0V90.3704H4.89808V95.2849H9.09644V90.3704H13.9945V86.0175Z" fill="url(#paint4_linear_10098_86658)"/>
<path d="M24.7562 209.32H19.8582V204.406H15.6598V209.32H10.7617V213.673H15.6598V218.588H19.8582V213.673H24.7562V209.32Z" fill="url(#paint5_linear_10098_86658)"/>
<path d="M238.874 209.599L232.881 206.563L235.907 200.55L230.77 197.948L227.745 203.961L221.752 200.925L219.072 206.251L225.065 209.287L222.039 215.3L227.176 217.902L230.201 211.889L236.194 214.925L238.874 209.599Z" fill="url(#paint6_linear_10098_86658)"/>
<defs>
<linearGradient id="paint0_linear_10098_86658" x1="92.4897" y1="130.541" x2="81.6502" y2="175.517" gradientUnits="userSpaceOnUse">
<stop offset="0.00289017" stop-color="#606673" stop-opacity="0"/>
<stop offset="1" stop-color="#373C47"/>
</linearGradient>
<linearGradient id="paint1_linear_10098_86658" x1="92.4897" y1="130.541" x2="81.6502" y2="175.517" gradientUnits="userSpaceOnUse">
<stop offset="0.00289017" stop-color="#606673" stop-opacity="0"/>
<stop offset="1" stop-color="#373C47"/>
</linearGradient>
<linearGradient id="paint2_linear_10098_86658" x1="56.1537" y1="217.852" x2="75.2383" y2="164.13" gradientUnits="userSpaceOnUse">
<stop offset="0.00289017" stop-color="#6C80AA" stop-opacity="0"/>
<stop offset="1" stop-color="#5D6A86"/>
</linearGradient>
<linearGradient id="paint3_linear_10098_86658" x1="160.037" y1="232.538" x2="161.539" y2="164.314" gradientUnits="userSpaceOnUse">
<stop offset="0.00289017" stop-color="#314F91" stop-opacity="0"/>
<stop offset="1" stop-color="#324264"/>
</linearGradient>
<linearGradient id="paint4_linear_10098_86658" x1="6.99837" y1="81.5957" x2="6.99837" y2="89.5558" gradientUnits="userSpaceOnUse">
<stop stop-color="#B0BACC"/>
<stop offset="1" stop-color="#969EAE"/>
</linearGradient>
<linearGradient id="paint5_linear_10098_86658" x1="17.7601" y1="204.898" x2="17.7601" y2="212.859" gradientUnits="userSpaceOnUse">
<stop stop-color="#B0BACC"/>
<stop offset="1" stop-color="#969EAE"/>
</linearGradient>
<linearGradient id="paint6_linear_10098_86658" x1="233.037" y1="199.853" x2="228.11" y2="209.579" gradientUnits="userSpaceOnUse">
<stop stop-color="#B0BACC"/>
<stop offset="1" stop-color="#969EAE"/>
</linearGradient>
</defs>
</svg>
