<svg width="24" height="24" viewBox="0 0 24 24" fill="none" xmlns="http://www.w3.org/2000/svg">
<path d="M18.6422 17.5711C19.0453 17.0602 19.2867 16.4156 19.2867 15.7125C19.2867 14.0555 17.9438 12.7125 16.2867 12.7125C14.6297 12.7125 13.2867 14.0555 13.2867 15.7125C13.2867 16.4133 13.5281 17.0602 13.9313 17.5711C12.2766 18.4266 11.1445 20.1539 11.1445 22.1414H12.8578C12.8578 20.25 14.3953 18.7125 16.2867 18.7125C18.1781 18.7125 19.7156 20.25 19.7156 22.1414H21.4289C21.4289 20.1563 20.2945 18.4289 18.6422 17.5711ZM16.2867 14.4281C16.9945 14.4281 17.5734 15.0047 17.5734 15.7148C17.5734 16.4227 16.9969 17.0016 16.2867 17.0016C15.5789 17.0016 15 16.425 15 15.7148C15 15.0047 15.5766 14.4281 16.2867 14.4281Z" fill="currentColor"/>
<path d="M2.57031 1.71328V22.2867H10.2859V20.5711H4.28594V3.4289H19.7148V12H21.4281V1.71328H2.57031Z" fill="currentColor"/>
<path d="M6 6H18V7.71328H6V6ZM6 9.42891H14.5711V11.1422H6V9.42891ZM6 12.8578H11.1422V14.5711H6V12.8578Z" fill="currentColor"/>
</svg>
