<svg width="18" height="18" viewBox="0 0 18 18" fill="none" xmlns="http://www.w3.org/2000/svg">
<mask id="mask0_11697_10423" style="mask-type:luminance" maskUnits="userSpaceOnUse" x="0" y="0" width="18" height="18">
<path d="M18 0H0V18H18V0Z" fill="white"/>
</mask>
<g mask="url(#mask0_11697_10423)">
<path d="M7.88159 2.74853C8.47776 2.08252 9.52056 2.08252 10.1167 2.74853L10.6423 3.33561C10.9462 3.67503 11.3878 3.85797 11.8427 3.83282L12.6295 3.78933C13.522 3.73998 14.2593 4.47731 14.2099 5.36984L14.1665 6.1566C14.1413 6.61147 14.3242 7.05312 14.6637 7.35699L15.2508 7.88256C15.9168 8.47874 15.9168 9.52154 15.2508 10.1177L14.6637 10.6433C14.3242 10.9471 14.1413 11.3888 14.1665 11.8437L14.2099 12.6304C14.2593 13.5229 13.522 14.2603 12.6295 14.2109L11.8427 14.1675C11.3878 14.1423 10.9462 14.3252 10.6423 14.6647L10.1167 15.2518C9.52056 15.9178 8.47776 15.9178 7.88159 15.2518L7.35601 14.6647C7.05215 14.3252 6.61049 14.1423 6.15562 14.1675L5.36886 14.2109C4.47633 14.2603 3.73901 13.5229 3.78835 12.6304L3.83184 11.8437C3.85699 11.3888 3.67406 10.9471 3.33463 10.6433L2.74755 10.1177C2.08155 9.52154 2.08155 8.47874 2.74755 7.88256L3.33463 7.35699C3.67406 7.05312 3.85699 6.61147 3.83184 6.1566L3.78835 5.36984C3.73901 4.47731 4.47633 3.73998 5.36886 3.78933L6.15562 3.83282C6.61049 3.85797 7.05215 3.67503 7.35601 3.33561L7.88159 2.74853Z" stroke="#545454" stroke-width="1.5"/>
<path d="M7.1325 7.125H7.125V7.1325H7.1325V7.125Z" stroke="#545454" stroke-width="1.5" stroke-linejoin="round"/>
<path d="M10.8825 10.875H10.875V10.8825H10.8825V10.875Z" stroke="#545454" stroke-width="1.5" stroke-linejoin="round"/>
<path d="M11.25 6.75L6.75 11.25" stroke="#545454" stroke-width="1.25" stroke-linecap="round" stroke-linejoin="round"/>
</g>
</svg>
