<svg width="18" height="18" viewBox="0 0 18 18" fill="none" xmlns="http://www.w3.org/2000/svg">
<mask id="mask0_11731_107752" style="mask-type:alpha" maskUnits="userSpaceOnUse" x="0" y="0" width="18" height="18">
<rect width="18" height="18" fill="#D9D9D9"/>
</mask>
<g mask="url(#mask0_11731_107752)">
<path d="M3 15.75V12.5625L12.8813 2.7C13.0312 2.55 13.2 2.4375 13.3875 2.3625C13.575 2.2875 13.7625 2.25 13.95 2.25C14.15 2.25 14.3406 2.2875 14.5219 2.3625C14.7031 2.4375 14.8625 2.55 15 2.7L16.05 3.75C16.2 3.8875 16.3125 4.04688 16.3875 4.22813C16.4625 4.40937 16.5 4.6 16.5 4.8C16.5 4.9875 16.4625 5.175 16.3875 5.3625C16.3125 5.55 16.2 5.71875 16.05 5.86875L6.1875 15.75H3ZM4.5 14.25H5.55L12.9188 6.9L12.3938 6.35625L11.85 5.83125L4.5 13.2V14.25ZM12.3938 6.35625L11.85 5.83125L12.9188 6.9L12.3938 6.35625ZM10.5 15.75C11.425 15.75 12.2812 15.5188 13.0688 15.0563C13.8562 14.5938 14.25 13.95 14.25 13.125C14.25 12.675 14.1313 12.2875 13.8938 11.9625C13.6562 11.6375 13.3375 11.3562 12.9375 11.1187L11.8313 12.225C12.1188 12.35 12.3438 12.4875 12.5063 12.6375C12.6687 12.7875 12.75 12.95 12.75 13.125C12.75 13.4125 12.5219 13.6719 12.0656 13.9031C11.6094 14.1344 11.0875 14.25 10.5 14.25C10.2875 14.25 10.1094 14.3219 9.96563 14.4656C9.82188 14.6094 9.75 14.7875 9.75 15C9.75 15.2125 9.82188 15.3906 9.96563 15.5344C10.1094 15.6781 10.2875 15.75 10.5 15.75ZM3.43125 10.0125L4.55625 8.8875C4.30625 8.7875 4.10938 8.68437 3.96563 8.57812C3.82188 8.47188 3.75 8.3625 3.75 8.25C3.75 8.1 3.8625 7.95 4.0875 7.8C4.3125 7.65 4.7875 7.41875 5.5125 7.10625C6.6125 6.63125 7.34375 6.2 7.70625 5.8125C8.06875 5.425 8.25 4.9875 8.25 4.5C8.25 3.8125 7.975 3.26562 7.425 2.85938C6.875 2.45312 6.15 2.25 5.25 2.25C4.6875 2.25 4.18438 2.35 3.74063 2.55C3.29688 2.75 2.95625 2.99375 2.71875 3.28125C2.58125 3.44375 2.525 3.625 2.55 3.825C2.575 4.025 2.66875 4.1875 2.83125 4.3125C2.99375 4.45 3.175 4.50625 3.375 4.48125C3.575 4.45625 3.74375 4.375 3.88125 4.2375C4.05625 4.0625 4.25 3.9375 4.4625 3.8625C4.675 3.7875 4.9375 3.75 5.25 3.75C5.7625 3.75 6.14063 3.825 6.38438 3.975C6.62813 4.125 6.75 4.3 6.75 4.5C6.75 4.675 6.64062 4.83438 6.42188 4.97813C6.20312 5.12188 5.7 5.375 4.9125 5.7375C3.9125 6.175 3.21875 6.57188 2.83125 6.92813C2.44375 7.28438 2.25 7.725 2.25 8.25C2.25 8.65 2.35625 8.99063 2.56875 9.27188C2.78125 9.55313 3.06875 9.8 3.43125 10.0125Z" fill="#2A2A2A"/>
</g>
</svg>
