<svg width="20" height="20" viewBox="0 0 20 20" fill="none" xmlns="http://www.w3.org/2000/svg">
<path d="M11.6673 10.8333C12.5878 10.8333 13.334 10.0871 13.334 9.16667C13.334 8.24619 12.5878 7.5 11.6673 7.5C10.7468 7.5 10.0007 8.24619 10.0007 9.16667C10.0007 10.0871 10.7468 10.8333 11.6673 10.8333Z" stroke="currentColor" stroke-width="2"/>
<path d="M14.9993 17.4993C15.9198 17.4993 16.666 16.7532 16.666 15.8327C16.666 14.9122 15.9198 14.166 14.9993 14.166C14.0789 14.166 13.3327 14.9122 13.3327 15.8327C13.3327 16.7532 14.0789 17.4993 14.9993 17.4993Z" stroke="currentColor" stroke-width="2"/>
<path d="M4.16602 3.33398V12.5006C4.16602 14.072 4.16602 14.8576 4.65417 15.3458C5.14232 15.834 5.928 15.834 7.49935 15.834H13.3327" stroke="currentColor" stroke-width="2"/>
<path d="M4.16602 5.83398C4.16602 7.40533 4.16602 8.19101 4.65417 8.67915C5.14232 9.16732 5.928 9.16732 7.49935 9.16732H9.99935" stroke="currentColor" stroke-width="2"/>
</svg>
