<svg width="24" height="24" viewBox="0 0 24 24" fill="none" xmlns="http://www.w3.org/2000/svg">
<path d="M9.039 8.13579L11.1 6.06528V14.6984C11.1 14.9372 11.1948 15.1662 11.3636 15.335C11.5324 15.5038 11.7613 15.5987 12 15.5987C12.2387 15.5987 12.4676 15.5038 12.6364 15.335C12.8052 15.1662 12.9 14.9372 12.9 14.6984V6.06528L14.961 8.13579C15.0447 8.22017 15.1442 8.28714 15.2539 8.33284C15.3636 8.37855 15.4812 8.40208 15.6 8.40208C15.7188 8.40208 15.8364 8.37855 15.9461 8.33284C16.0558 8.28714 16.1553 8.22017 16.239 8.13579C16.3234 8.0521 16.3903 7.95254 16.436 7.84284C16.4817 7.73314 16.5052 7.61547 16.5052 7.49663C16.5052 7.37779 16.4817 7.26013 16.436 7.15043C16.3903 7.04073 16.3234 6.94116 16.239 6.85747L12.639 3.25658C12.5534 3.17462 12.4525 3.11037 12.342 3.06753C12.1229 2.97749 11.8771 2.97749 11.658 3.06753C11.5475 3.11037 11.4466 3.17462 11.361 3.25658L7.761 6.85747C7.67708 6.94141 7.61052 7.04106 7.56511 7.15072C7.51969 7.26039 7.49632 7.37793 7.49632 7.49663C7.49632 7.61534 7.51969 7.73288 7.56511 7.84254C7.61052 7.95221 7.67708 8.05186 7.761 8.13579C7.84491 8.21973 7.94454 8.28631 8.05418 8.33173C8.16382 8.37716 8.28133 8.40054 8.4 8.40054C8.51867 8.40054 8.63618 8.37716 8.74582 8.33173C8.85546 8.28631 8.95509 8.21973 9.039 8.13579ZM20.1 13.7982C19.8613 13.7982 19.6324 13.893 19.4636 14.0619C19.2948 14.2307 19.2 14.4597 19.2 14.6984V18.2993C19.2 18.5381 19.1052 18.7671 18.9364 18.9359C18.7676 19.1047 18.5387 19.1996 18.3 19.1996H5.7C5.4613 19.1996 5.23239 19.1047 5.0636 18.9359C4.89482 18.7671 4.8 18.5381 4.8 18.2993V14.6984C4.8 14.4597 4.70518 14.2307 4.5364 14.0619C4.36761 13.893 4.13869 13.7982 3.9 13.7982C3.66131 13.7982 3.43239 13.893 3.2636 14.0619C3.09482 14.2307 3 14.4597 3 14.6984V18.2993C3 19.0156 3.28446 19.7025 3.79081 20.209C4.29716 20.7155 4.98392 21 5.7 21H18.3C19.0161 21 19.7028 20.7155 20.2092 20.209C20.7155 19.7025 21 19.0156 21 18.2993V14.6984C21 14.4597 20.9052 14.2307 20.7364 14.0619C20.5676 13.893 20.3387 13.7982 20.1 13.7982Z" fill="white"/>
</svg>
