<svg width="28" height="28" viewBox="0 0 28 28" fill="none" xmlns="http://www.w3.org/2000/svg">
<path d="M16.3327 2.64795V7.46691C16.3327 8.1203 16.3327 8.447 16.4598 8.69657C16.5717 8.91609 16.7501 9.09456 16.9697 9.20642C17.2192 9.33358 17.5459 9.33358 18.1993 9.33358H23.0183M11.0827 14.0002L16.916 19.8335M16.916 14.0002L11.0827 19.8335M16.3327 2.3335H10.266C8.30583 2.3335 7.32574 2.3335 6.57705 2.71497C5.91848 3.05053 5.38305 3.58596 5.04749 4.24453C4.66602 4.99322 4.66602 5.97331 4.66602 7.9335V20.0668C4.66602 22.0271 4.66602 23.0071 5.04749 23.7558C5.38305 24.4144 5.91848 24.9498 6.57705 25.2853C7.32574 25.6668 8.30583 25.6668 10.266 25.6668H17.7327C19.6929 25.6668 20.6729 25.6668 21.4217 25.2853C22.0803 24.9498 22.6156 24.4144 22.9512 23.7558C23.3327 23.0071 23.3327 22.0271 23.3327 20.0668V9.3335L16.3327 2.3335Z" stroke="black" stroke-width="2.5" stroke-linecap="round" stroke-linejoin="round"/>
</svg>
