<svg width="26" height="26" viewBox="0 0 26 26" fill="none" xmlns="http://www.w3.org/2000/svg">
<path d="M9.75032 22.75V14.7333C9.75032 14.1266 9.75033 13.8232 9.86841 13.5915C9.97227 13.3876 10.138 13.222 10.3418 13.1181C10.5736 13 10.877 13 11.4837 13H14.517C15.1238 13 15.4271 13 15.6588 13.1181C15.8627 13.222 16.0283 13.3876 16.1322 13.5915C16.2503 13.8232 16.2503 14.1266 16.2503 14.7333V22.75M2.16699 10.2917L11.9603 2.94667C12.3333 2.66696 12.5198 2.5271 12.7245 2.47318C12.9053 2.4256 13.0953 2.4256 13.2761 2.47319C13.4809 2.5271 13.6673 2.66696 14.0403 2.94667L23.8337 10.2917M4.33366 8.66667V19.2833C4.33366 20.4968 4.33366 21.1035 4.56981 21.567C4.77754 21.9747 5.109 22.3062 5.51668 22.5138C5.98016 22.75 6.58688 22.75 7.80032 22.75H18.2003C19.4138 22.75 20.0205 22.75 20.484 22.5138C20.8917 22.3062 21.2231 21.9747 21.4308 21.567C21.667 21.1035 21.667 20.4968 21.667 19.2833V8.66667L15.0803 3.72667C14.3344 3.16724 13.9615 2.88754 13.5518 2.77971C13.1903 2.68454 12.8103 2.68454 12.4488 2.77971C12.0392 2.88754 11.6662 3.16724 10.9203 3.72667L4.33366 8.66667Z" stroke="currentColor" stroke-width="2" stroke-linecap="round" stroke-linejoin="round"/>
</svg>
