<svg width="24" height="24" viewBox="0 0 24 24" fill="none" xmlns="http://www.w3.org/2000/svg">
<path d="M14.2639 15.9376L12.5958 14.2835C11.7909 13.4852 11.3884 13.0861 10.9266 12.9402C10.5204 12.8119 10.0838 12.8166 9.68048 12.9537C9.22188 13.1096 8.82814 13.5173 8.04068 14.3327L4.04409 18.2802M14.2639 15.9376L14.6053 15.5991C15.4112 14.7999 15.8141 14.4003 16.2765 14.2544C16.6831 14.1262 17.12 14.1312 17.5236 14.2688C17.9824 14.4252 18.3761 14.834 19.1634 15.6515L20 16.4936M14.2639 15.9376L18.275 19.9566M4.04409 18.2802C4.07512 18.5322 4.12796 18.7314 4.21799 18.9081C4.40973 19.2844 4.71569 19.5904 5.09202 19.7821C5.51984 20.0001 6.07989 20.0001 7.2 20.0001H16.8C17.4543 20.0001 17.9176 20.0001 18.275 19.9566M4.04409 18.2802C4 17.9222 4 17.4576 4 16.8001V7.20011C4 6.08 4 5.51995 4.21799 5.09213C4.40973 4.7158 4.71569 4.40984 5.09202 4.21809C5.51984 4.00011 6.07989 4.00011 7.2 4.00011L12.5 4M20 16.4936V16.8001C20 17.9202 20 18.4803 19.782 18.9081C19.5903 19.2844 19.2843 19.5904 18.908 19.7821C18.7301 19.8728 18.5293 19.9257 18.275 19.9566M20 16.4936V11.5M14 10.0002L16.0249 9.59516C16.2015 9.55984 16.2898 9.54219 16.3721 9.5099C16.4452 9.48124 16.5146 9.44407 16.579 9.39917C16.6515 9.34859 16.7152 9.28492 16.8425 9.1576L21 5.00015C21.5522 4.44787 21.5522 3.55244 21 3.00015C20.4477 2.44787 19.5522 2.44787 19 3.00015L14.8425 7.1576C14.7152 7.28492 14.6515 7.34859 14.6009 7.42112C14.556 7.4855 14.5189 7.55494 14.4902 7.62801C14.4579 7.71033 14.4403 7.79862 14.4049 7.97518L14 10.0002Z" stroke="currentColor" stroke-width="2" stroke-linecap="round" stroke-linejoin="round"/>
</svg>
