<svg width="86" height="86" viewBox="0 0 86 86" fill="none" xmlns="http://www.w3.org/2000/svg">
<rect width="86" height="86" rx="43" fill="#E6F0FF"/>
<path d="M29.5 29.5C32.0124 29.5 34.2903 30.119 36.334 31.3564C38.3777 32.5939 40.0002 34.225 41.2002 36.25H61L67.75 43L57.625 53.125L53.125 49.75L48.625 53.125L43.8438 49.75H41.2002C40.0002 51.775 38.3777 53.4061 36.334 54.6436C34.2903 55.881 32.0124 56.5 29.5 56.5C25.75 56.5 22.5625 55.1875 19.9375 52.5625C17.3125 49.9375 16 46.75 16 43C16 39.25 17.3125 36.0625 19.9375 33.4375C22.5625 30.8125 25.75 29.5 29.5 29.5ZM29.5 34C27.025 34 24.9061 34.8811 23.1436 36.6436C21.3811 38.4061 20.5 40.525 20.5 43C20.5 45.475 21.3811 47.5939 23.1436 49.3564C24.9061 51.1189 27.025 52 29.5 52C31.6 52 33.4473 51.3629 35.041 50.0879C36.6347 48.8129 37.6938 47.2 38.2188 45.25H45.25L48.5127 47.5566L53.125 44.125L57.1191 47.2188L61.3379 43L59.0879 40.75H38.2188C37.6938 38.8 36.6347 37.1871 35.041 35.9121C33.4473 34.6371 31.6 34 29.5 34ZM29.5 38.5C30.7375 38.5 31.7965 38.941 32.6777 39.8223C33.559 40.7035 34 41.7625 34 43C34 44.2375 33.559 45.2965 32.6777 46.1777C31.7965 47.059 30.7375 47.5 29.5 47.5C28.2625 47.5 27.2035 47.059 26.3223 46.1777C25.441 45.2965 25 44.2375 25 43C25 41.7625 25.441 40.7035 26.3223 39.8223C27.2035 38.941 28.2625 38.5 29.5 38.5Z" fill="#0088FF"/>
</svg>
