<svg width="60" height="60" viewBox="0 0 60 60" fill="none" xmlns="http://www.w3.org/2000/svg">
<path d="M45.5922 31.6052V28.5868C45.5922 26.9197 44.2408 25.5683 42.5737 25.5683H12.3891C10.722 25.5683 9.37061 26.9197 9.37061 28.5868V46.6976C9.37061 48.3647 10.722 49.716 12.3891 49.716H42.5737C44.2408 49.716 45.5922 48.3647 45.5922 46.6976V43.6791M45.5922 31.6052H33.5183C30.1842 31.6052 27.4814 34.3081 27.4814 37.6422C27.4814 40.9764 30.1842 43.6791 33.5183 43.6791H45.5922M45.5922 31.6052C48.9264 31.6052 51.6291 34.3081 51.6291 37.6422C51.6291 40.9764 48.9264 43.6791 45.5922 43.6791M18.426 25.5683V16.5129C18.426 11.5118 22.4803 7.45752 27.4814 7.45752C32.4825 7.45752 36.5368 11.5118 36.5368 16.5129V25.5683M44.083 37.6422H47.1014M38.046 37.6422H41.0645M32.0091 37.6422H35.0276" stroke="currentColor" stroke-width="4"/>
</svg>
