<svg width="28" height="28" viewBox="0 0 28 28" fill="none" xmlns="http://www.w3.org/2000/svg">
<path d="M21.0007 8.16683V6.06683C21.0007 4.76005 21.0007 4.10664 20.7463 3.60752C20.5227 3.16847 20.1657 2.81151 19.7267 2.58782C19.2276 2.3335 18.5741 2.3335 17.2673 2.3335H10.734C9.4272 2.3335 8.7738 2.3335 8.27467 2.58782C7.83562 2.81151 7.47867 3.16847 7.25497 3.60752C7.00065 4.10664 7.00065 4.76005 7.00065 6.06683V8.16683M7.00065 21.0002C5.91569 21.0002 5.3732 21.0002 4.92811 20.8809C3.7203 20.5573 2.77687 19.6138 2.45324 18.4061C2.33398 17.961 2.33398 17.4185 2.33398 16.3335V13.7668C2.33398 11.8066 2.33398 10.8266 2.71546 10.0779C3.05102 9.41929 3.58645 8.88386 4.24502 8.54831C4.9937 8.16683 5.9738 8.16683 7.93398 8.16683H20.0673C22.0276 8.16683 23.0076 8.16683 23.7563 8.54831C24.4149 8.88386 24.9503 9.41929 25.2858 10.0779C25.6673 10.8266 25.6673 11.8066 25.6673 13.7668V16.3335C25.6673 17.4185 25.6673 17.961 25.5481 18.4061C25.2245 19.6138 24.281 20.5573 23.0732 20.8809C22.6282 21.0002 22.0857 21.0002 21.0007 21.0002M17.5007 12.2502H21.0007M10.734 25.6668H17.2673C18.5741 25.6668 19.2276 25.6668 19.7267 25.4125C20.1657 25.1888 20.5227 24.8318 20.7463 24.3928C21.0007 23.8937 21.0007 23.2403 21.0007 21.9335V20.0668C21.0007 18.76 21.0007 18.1066 20.7463 17.6075C20.5227 17.1685 20.1657 16.8115 19.7267 16.5878C19.2276 16.3335 18.5741 16.3335 17.2673 16.3335H10.734C9.4272 16.3335 8.7738 16.3335 8.27467 16.5878C7.83562 16.8115 7.47867 17.1685 7.25497 17.6075C7.00065 18.1066 7.00065 18.76 7.00065 20.0668V21.9335C7.00065 23.2403 7.00065 23.8937 7.25497 24.3928C7.47867 24.8318 7.83562 25.1888 8.27467 25.4125C8.7738 25.6668 9.42719 25.6668 10.734 25.6668Z" stroke="black" stroke-width="2.5" stroke-linecap="round" stroke-linejoin="round"/>
</svg>
