<svg width="24" height="24" viewBox="0 0 24 24" fill="none" xmlns="http://www.w3.org/2000/svg">
<mask id="mask0_5916_40493" style="mask-type:alpha" maskUnits="userSpaceOnUse" x="0" y="0" width="24" height="24">
<rect width="24" height="24" fill="currentColor"/>
</mask>
<g mask="url(#mask0_5916_40493)">
<path d="M5 9H13.45H13H13.35H5ZM5.4 7H18.6L17.75 6H6.25L5.4 7ZM10 13.75L12 12.75L14 13.75V9H10V13.75ZM14.55 22H5C4.45 22 3.97917 21.8042 3.5875 21.4125C3.19583 21.0208 3 20.55 3 20V7.525C3 7.29167 3.0375 7.06667 3.1125 6.85C3.1875 6.63333 3.3 6.43333 3.45 6.25L4.7 4.725C4.88333 4.49167 5.1125 4.3125 5.3875 4.1875C5.6625 4.0625 5.95 4 6.25 4H17.75C18.05 4 18.3375 4.0625 18.6125 4.1875C18.8875 4.3125 19.1167 4.49167 19.3 4.725L20.55 6.25C20.7 6.43333 20.8125 6.63333 20.8875 6.85C20.9625 7.06667 21 7.29167 21 7.525V12.425C20.6833 12.3083 20.3583 12.2167 20.025 12.15C19.6917 12.0833 19.35 12.05 19 12.05V9H16V12.825C15.4167 13.1583 14.9083 13.5708 14.475 14.0625C14.0417 14.5542 13.7 15.1083 13.45 15.725L12 15L8 17V9H5V20H13.35C13.4833 20.3833 13.65 20.7417 13.85 21.075C14.05 21.4083 14.2833 21.7167 14.55 22ZM18 22V19H15V17H18V14H20V17H23V19H20V22H18Z" fill="currentColor"/>
</g>
</svg>
