<svg width="20" height="20" viewBox="0 0 20 20" fill="none" xmlns="http://www.w3.org/2000/svg">
<rect width="20" height="20" rx="10" fill="currentColor"/>
<path d="M13.966 13.0535C14.0991 13.1974 14.1714 13.3874 14.1676 13.5834C14.1637 13.7795 14.0842 13.9664 13.9456 14.1051C13.807 14.2438 13.6201 14.3235 13.424 14.3274C13.228 14.3314 13.038 14.2593 12.8939 14.1263L9.99961 11.232L7.1053 14.1263C7.03592 14.2013 6.95211 14.2616 6.85888 14.3035C6.76566 14.3453 6.66494 14.3679 6.56276 14.3699C6.46059 14.3719 6.35906 14.3532 6.26428 14.315C6.1695 14.2768 6.08341 14.2199 6.01117 14.1476C5.93893 14.0753 5.88204 13.9891 5.8439 13.8943C5.80576 13.7995 5.78716 13.698 5.78922 13.5958C5.79127 13.4936 5.81394 13.3929 5.85587 13.2997C5.89779 13.2065 5.9581 13.1228 6.03319 13.0535L8.92751 10.1591L6.03319 7.26629C5.9581 7.19697 5.89779 7.1132 5.85587 7.02C5.81394 6.92681 5.79127 6.8261 5.78922 6.72393C5.78716 6.62175 5.80576 6.52022 5.8439 6.42541C5.88204 6.3306 5.93893 6.24447 6.01117 6.17218C6.08341 6.0999 6.1695 6.04294 6.26428 6.00474C6.35906 5.96653 6.46059 5.94786 6.56276 5.94985C6.66494 5.95184 6.76566 5.97444 6.85888 6.0163C6.95211 6.05816 7.03592 6.11841 7.1053 6.19345L9.99961 9.08703L12.8939 6.19272C13.038 6.0597 13.228 5.98762 13.424 5.99156C13.6201 5.99551 13.807 6.07518 13.9456 6.21388C14.0842 6.35259 14.1637 6.53955 14.1676 6.7356C14.1714 6.93166 14.0991 7.12157 13.966 7.26556L11.0717 10.1591L13.966 13.0535Z" fill="black"/>
</svg>
