<svg width="24" height="24" viewBox="0 0 24 24" fill="none" xmlns="http://www.w3.org/2000/svg">
<path d="M18.7999 17.2345C19.0281 17.4813 19.1519 17.8069 19.1454 18.143C19.1388 18.4791 19.0025 18.7996 18.7648 19.0374C18.5272 19.2751 18.2068 19.4117 17.8707 19.4185C17.5346 19.4252 17.209 19.3017 16.962 19.0736L12.0003 14.112L7.03863 19.0736C6.9197 19.2023 6.77602 19.3056 6.61621 19.3773C6.45639 19.4491 6.28372 19.4878 6.10857 19.4913C5.93341 19.4947 5.75937 19.4627 5.59689 19.3972C5.4344 19.3317 5.28681 19.234 5.16298 19.1101C5.03915 18.9862 4.94161 18.8385 4.87623 18.676C4.81085 18.5135 4.77896 18.3394 4.78249 18.1643C4.78602 17.9891 4.82488 17.8165 4.89675 17.6567C4.96862 17.4969 5.07201 17.3533 5.20073 17.2345L10.1624 12.2728L5.20073 7.31365C5.07201 7.19481 4.96862 7.0512 4.89675 6.89144C4.82488 6.73167 4.78602 6.55903 4.78249 6.38388C4.77896 6.20872 4.81085 6.03466 4.87623 5.87213C4.94161 5.7096 5.03915 5.56195 5.16298 5.43803C5.28681 5.31411 5.4344 5.21647 5.59689 5.15098C5.75937 5.08548 5.93341 5.05348 6.10857 5.05689C6.28372 5.06029 6.45639 5.09904 6.61621 5.17079C6.77602 5.24255 6.9197 5.34585 7.03863 5.47449L12.0003 10.4349L16.962 5.47323C17.209 5.24521 17.5346 5.12163 17.8707 5.12839C18.2068 5.13516 18.5272 5.27174 18.7648 5.50951C19.0025 5.74729 19.1388 6.06781 19.1454 6.40389C19.1519 6.73998 19.0281 7.06555 18.7999 7.31239L13.8382 12.2728L18.7999 17.2345Z" fill="currentColor"/>
</svg>
