<svg width="34" height="34" viewBox="0 0 34 34" fill="none" xmlns="http://www.w3.org/2000/svg">
<path d="M4.66309 20.6113C4.66309 21.0576 4.72939 21.5038 4.8877 22.0342L4.93359 22.1855C5.60517 24.1891 7.45429 25.5351 9.5332 25.5352H28.3857L27.2158 29.2959C26.8845 30.5749 25.7025 31.4434 24.4092 31.4434C24.1568 31.4431 23.9053 31.41 23.6611 31.3457L3.58008 25.9092C2.03102 25.4772 1.10768 23.8557 1.5127 22.292L4.66309 11.6592V20.6113ZM29.3379 2.55859C31.1273 2.55883 32.5839 4.03174 32.584 5.84082V20.2832C32.5839 22.0924 31.1273 23.5652 29.3379 23.5654H9.85742C8.06829 23.5652 6.61136 22.0924 6.61133 20.2832V5.84082C6.61139 4.03172 8.0683 2.5588 9.85742 2.55859H29.3379ZM9.85742 5.18457C9.49931 5.18478 9.20901 5.47847 9.20898 5.84082V18.2334L12.793 14.6113C13.68 13.7134 15.1255 13.7134 16.0137 14.6113L17.585 16.1963L22.4082 10.3428C22.8392 9.82037 23.4702 9.51858 24.1426 9.51465C24.8191 9.53022 25.4496 9.80634 25.8848 10.3223L29.9873 15.1611V5.84082C29.9872 5.47852 29.6963 5.18481 29.3379 5.18457H9.85742ZM13.1045 6.49707C14.537 6.49707 15.7021 7.67485 15.7021 9.12305C15.7021 10.5712 14.537 11.749 13.1045 11.749C11.6721 11.749 10.5069 10.5711 10.5068 9.12305C10.5068 7.67495 11.6721 6.49714 13.1045 6.49707Z" fill="#838383"/>
</svg>
