<svg width="50" height="50" viewBox="0 0 50 50" fill="none" xmlns="http://www.w3.org/2000/svg">
<path d="M8.90149 43.1831L22.6442 29.4404C23.4692 28.6154 23.8819 28.2027 24.3576 28.0483C24.7759 27.9123 25.2267 27.9123 25.6451 28.0483C26.1207 28.2027 26.5334 28.6154 27.3584 29.4404L41.0094 43.0915M29.168 31.25L35.1442 25.2737C35.9692 24.4487 36.3819 24.036 36.8576 23.8817C37.2759 23.7456 37.7267 23.7456 38.1451 23.8817C38.6207 24.036 39.0334 24.4487 39.8584 25.2737L45.8346 31.25M20.8346 18.75C20.8346 21.0512 18.9692 22.9167 16.668 22.9167C14.3668 22.9167 12.5013 21.0512 12.5013 18.75C12.5013 16.4488 14.3668 14.5833 16.668 14.5833C18.9692 14.5833 20.8346 16.4488 20.8346 18.75ZM14.168 43.75H35.8346C39.3351 43.75 41.0851 43.75 42.4221 43.0687C43.5982 42.4696 44.5542 41.5135 45.1534 40.3375C45.8346 39.0004 45.8346 37.2504 45.8346 33.75V16.25C45.8346 12.7497 45.8346 10.9995 45.1534 9.66256C44.5542 8.48654 43.5982 7.53042 42.4221 6.93121C41.0851 6.25 39.3351 6.25 35.8346 6.25H14.168C10.6676 6.25 8.91747 6.25 7.58053 6.93121C6.40451 7.53042 5.44839 8.48654 4.84918 9.66256C4.16797 10.9995 4.16797 12.7497 4.16797 16.25V33.75C4.16797 37.2504 4.16797 39.0004 4.84918 40.3375C5.44839 41.5135 6.40451 42.4696 7.58053 43.0687C8.91747 43.75 10.6676 43.75 14.168 43.75Z" stroke="#3F3F3F" stroke-width="2" stroke-linecap="round" stroke-linejoin="round"/>
</svg>
