<svg width="20" height="20" viewBox="0 0 20 20" fill="none" xmlns="http://www.w3.org/2000/svg">
<path d="M10 10C11.3807 10 12.5 8.88071 12.5 7.5C12.5 6.11929 11.3807 5 10 5C8.61929 5 7.5 6.11929 7.5 7.5C7.5 8.88071 8.61929 10 10 10Z" stroke="currentColor" stroke-width="1.5"/>
<path d="M9.99935 18.3327C14.6017 18.3327 18.3327 14.6017 18.3327 9.99935C18.3327 5.39698 14.6017 1.66602 9.99935 1.66602C5.39698 1.66602 1.66602 5.39698 1.66602 9.99935C1.66602 14.6017 5.39698 18.3327 9.99935 18.3327Z" stroke="currentColor" stroke-width="1.5"/>
<path d="M14.974 16.6667C14.8414 14.2571 14.1037 12.5 9.99967 12.5C5.89577 12.5 5.15802 14.2571 5.02539 16.6667" stroke="currentColor" stroke-width="1.5" stroke-linecap="round"/>
</svg>
