<svg width="30" height="30" viewBox="0 0 30 30" fill="none" xmlns="http://www.w3.org/2000/svg">
<rect width="30" height="30" rx="5" fill="white"/>
<mask id="path-2-inside-1_4362_18168" fill="white">
<path fill-rule="evenodd" clip-rule="evenodd" d="M7.80039 13.8004C7.80039 12.2091 8.43253 10.683 9.55775 9.55775C10.683 8.43253 12.2091 7.80039 13.8004 7.80039C15.3917 7.80039 16.9178 8.43253 18.043 9.55775C19.1683 10.683 19.8004 12.2091 19.8004 13.8004C19.8004 15.3917 19.1683 16.9178 18.043 18.043C16.9178 19.1682 15.3917 19.8004 13.8004 19.8004C12.2091 19.8004 10.683 19.1682 9.55775 18.043C8.43253 16.9178 7.80039 15.3917 7.80039 13.8004ZM13.8004 5.40039C12.4694 5.40039 11.1575 5.71668 9.97267 6.32319C8.7879 6.9297 7.7642 7.80906 6.98596 8.88882C6.20771 9.96858 5.69719 11.2178 5.49646 12.5336C5.29574 13.8494 5.41055 15.194 5.83145 16.4567C6.25235 17.7194 6.96728 18.864 7.91732 19.7962C8.86737 20.7284 10.0253 21.4214 11.2958 21.8183C12.5662 22.2152 13.9128 22.3044 15.2245 22.0788C16.5363 21.8531 17.7756 21.319 18.8404 20.5204C18.8745 20.5658 18.9118 20.6087 18.952 20.6488L22.552 24.2488C22.7783 24.4674 23.0814 24.5883 23.3961 24.5856C23.7107 24.5829 24.0117 24.4567 24.2342 24.2342C24.4567 24.0117 24.5829 23.7107 24.5856 23.3961C24.5883 23.0814 24.4674 22.7783 24.2488 22.552L20.6488 18.952C20.6087 18.9118 20.5658 18.8745 20.5204 18.8404C21.4564 17.5924 22.0264 16.1084 22.1665 14.5548C22.3065 13.0011 22.0112 11.4391 21.3136 10.0438C20.6159 8.64851 19.5435 7.47505 18.2165 6.65492C16.8895 5.83479 15.3604 5.40039 13.8004 5.40039ZM12.6004 10.8004C12.6004 10.4821 12.7268 10.1769 12.9519 9.95186C13.1769 9.72682 13.4821 9.60039 13.8004 9.60039C14.1187 9.60039 14.4239 9.72682 14.6489 9.95186C14.874 10.1769 15.0004 10.4821 15.0004 10.8004V12.6004H16.8004C17.1187 12.6004 17.4239 12.7268 17.6489 12.9519C17.874 13.1769 18.0004 13.4821 18.0004 13.8004C18.0004 14.1186 17.874 14.4239 17.6489 14.6489C17.4239 14.874 17.1187 15.0004 16.8004 15.0004H15.0004V16.8004C15.0004 17.1186 14.874 17.4239 14.6489 17.6489C14.4239 17.874 14.1187 18.0004 13.8004 18.0004C13.4821 18.0004 13.1769 17.874 12.9519 17.6489C12.7268 17.4239 12.6004 17.1186 12.6004 16.8004V15.0004H10.8004C10.4821 15.0004 10.1769 14.874 9.95186 14.6489C9.72682 14.4239 9.60039 14.1186 9.60039 13.8004C9.60039 13.4821 9.72682 13.1769 9.95186 12.9519C10.1769 12.7268 10.4821 12.6004 10.8004 12.6004H12.6004V10.8004Z"/>
</mask>
<path fill-rule="evenodd" clip-rule="evenodd" d="M7.80039 13.8004C7.80039 12.2091 8.43253 10.683 9.55775 9.55775C10.683 8.43253 12.2091 7.80039 13.8004 7.80039C15.3917 7.80039 16.9178 8.43253 18.043 9.55775C19.1683 10.683 19.8004 12.2091 19.8004 13.8004C19.8004 15.3917 19.1683 16.9178 18.043 18.043C16.9178 19.1682 15.3917 19.8004 13.8004 19.8004C12.2091 19.8004 10.683 19.1682 9.55775 18.043C8.43253 16.9178 7.80039 15.3917 7.80039 13.8004ZM13.8004 5.40039C12.4694 5.40039 11.1575 5.71668 9.97267 6.32319C8.7879 6.9297 7.7642 7.80906 6.98596 8.88882C6.20771 9.96858 5.69719 11.2178 5.49646 12.5336C5.29574 13.8494 5.41055 15.194 5.83145 16.4567C6.25235 17.7194 6.96728 18.864 7.91732 19.7962C8.86737 20.7284 10.0253 21.4214 11.2958 21.8183C12.5662 22.2152 13.9128 22.3044 15.2245 22.0788C16.5363 21.8531 17.7756 21.319 18.8404 20.5204C18.8745 20.5658 18.9118 20.6087 18.952 20.6488L22.552 24.2488C22.7783 24.4674 23.0814 24.5883 23.3961 24.5856C23.7107 24.5829 24.0117 24.4567 24.2342 24.2342C24.4567 24.0117 24.5829 23.7107 24.5856 23.3961C24.5883 23.0814 24.4674 22.7783 24.2488 22.552L20.6488 18.952C20.6087 18.9118 20.5658 18.8745 20.5204 18.8404C21.4564 17.5924 22.0264 16.1084 22.1665 14.5548C22.3065 13.0011 22.0112 11.4391 21.3136 10.0438C20.6159 8.64851 19.5435 7.47505 18.2165 6.65492C16.8895 5.83479 15.3604 5.40039 13.8004 5.40039ZM12.6004 10.8004C12.6004 10.4821 12.7268 10.1769 12.9519 9.95186C13.1769 9.72682 13.4821 9.60039 13.8004 9.60039C14.1187 9.60039 14.4239 9.72682 14.6489 9.95186C14.874 10.1769 15.0004 10.4821 15.0004 10.8004V12.6004H16.8004C17.1187 12.6004 17.4239 12.7268 17.6489 12.9519C17.874 13.1769 18.0004 13.4821 18.0004 13.8004C18.0004 14.1186 17.874 14.4239 17.6489 14.6489C17.4239 14.874 17.1187 15.0004 16.8004 15.0004H15.0004V16.8004C15.0004 17.1186 14.874 17.4239 14.6489 17.6489C14.4239 17.874 14.1187 18.0004 13.8004 18.0004C13.4821 18.0004 13.1769 17.874 12.9519 17.6489C12.7268 17.4239 12.6004 17.1186 12.6004 16.8004V15.0004H10.8004C10.4821 15.0004 10.1769 14.874 9.95186 14.6489C9.72682 14.4239 9.60039 14.1186 9.60039 13.8004C9.60039 13.4821 9.72682 13.1769 9.95186 12.9519C10.1769 12.7268 10.4821 12.6004 10.8004 12.6004H12.6004V10.8004Z" fill="black"/>
<path d="M7.80039 13.8004H4.80039H7.80039ZM19.8004 13.8004H22.8004H19.8004ZM13.8004 19.8004V22.8004V19.8004ZM13.8004 5.40039V8.40039V5.40039ZM18.8404 20.5204L21.2386 18.718L19.438 16.3222L17.0404 18.1204L18.8404 20.5204ZM18.952 20.6488L21.0733 18.5275L21.0709 18.5251L18.952 20.6488ZM22.552 24.2488L20.4307 26.3701L20.4491 26.3885L20.4679 26.4067L22.552 24.2488ZM24.2488 22.552L26.4067 20.4679L26.3885 20.4491L26.3701 20.4307L24.2488 22.552ZM20.6488 18.952L18.5251 21.0709L18.5275 21.0733L20.6488 18.952ZM20.5204 18.8404L18.1204 17.0404L16.3222 19.438L18.718 21.2386L20.5204 18.8404ZM12.6004 10.8004H15.6004H12.6004ZM13.8004 9.60039V12.6004V9.60039ZM15.0004 12.6004H12.0004V15.6004H15.0004V12.6004ZM16.8004 12.6004V15.6004V12.6004ZM15.0004 15.0004V12.0004H12.0004V15.0004H15.0004ZM12.6004 16.8004H15.6004H12.6004ZM12.6004 15.0004H15.6004V12.0004H12.6004V15.0004ZM10.8004 12.6004V15.6004V12.6004ZM12.6004 12.6004V15.6004H15.6004V12.6004H12.6004ZM7.80039 13.8004H10.8004C10.8004 13.0047 11.1165 12.2417 11.6791 11.6791L9.55775 9.55775L7.43643 7.43643C5.7486 9.12426 4.80039 11.4134 4.80039 13.8004H7.80039ZM9.55775 9.55775L11.6791 11.6791C12.2417 11.1165 13.0047 10.8004 13.8004 10.8004V7.80039V4.80039C11.4134 4.80039 9.12426 5.7486 7.43643 7.43643L9.55775 9.55775ZM13.8004 7.80039V10.8004C14.596 10.8004 15.3591 11.1165 15.9217 11.6791L18.043 9.55775L20.1644 7.43643C18.4765 5.7486 16.1873 4.80039 13.8004 4.80039V7.80039ZM18.043 9.55775L15.9217 11.6791C16.4843 12.2417 16.8004 13.0047 16.8004 13.8004H19.8004H22.8004C22.8004 11.4134 21.8522 9.12426 20.1644 7.43643L18.043 9.55775ZM19.8004 13.8004H16.8004C16.8004 14.596 16.4843 15.3591 15.9217 15.9217L18.043 18.043L20.1644 20.1644C21.8522 18.4765 22.8004 16.1873 22.8004 13.8004H19.8004ZM18.043 18.043L15.9217 15.9217C15.3591 16.4843 14.596 16.8004 13.8004 16.8004V19.8004V22.8004C16.1873 22.8004 18.4765 21.8522 20.1644 20.1644L18.043 18.043ZM13.8004 19.8004V16.8004C13.0047 16.8004 12.2417 16.4843 11.6791 15.9217L9.55775 18.043L7.43643 20.1644C9.12426 21.8522 11.4134 22.8004 13.8004 22.8004V19.8004ZM9.55775 18.043L11.6791 15.9217C11.1165 15.3591 10.8004 14.596 10.8004 13.8004H7.80039H4.80039C4.80039 16.1873 5.7486 18.4765 7.43643 20.1644L9.55775 18.043ZM13.8004 5.40039V2.40039C11.994 2.40039 10.2135 2.82964 8.60563 3.65276L9.97267 6.32319L11.3397 8.99362C12.1014 8.60372 12.9448 8.40039 13.8004 8.40039V5.40039ZM9.97267 6.32319L8.60563 3.65276C6.99772 4.47588 5.60842 5.6693 4.55223 7.13469L6.98596 8.88882L9.41968 10.643C9.91999 9.94882 10.5781 9.38352 11.3397 8.99362L9.97267 6.32319ZM6.98596 8.88882L4.55223 7.13469C3.49604 8.60008 2.80319 10.2955 2.53077 12.0812L5.49646 12.5336L8.46215 12.986C8.59119 12.1402 8.91938 11.3371 9.41968 10.643L6.98596 8.88882ZM5.49646 12.5336L2.53077 12.0812C2.25836 13.8669 2.41418 15.6917 2.9854 17.4054L5.83145 16.4567L8.6775 15.508C8.40692 14.6963 8.33311 13.8319 8.46215 12.986L5.49646 12.5336ZM5.83145 16.4567L2.9854 17.4054C3.55662 19.119 4.52688 20.6724 5.81623 21.9375L7.91732 19.7962L10.0184 17.6548C9.40768 17.0556 8.94808 16.3198 8.6775 15.508L5.83145 16.4567ZM7.91732 19.7962L5.81623 21.9375C7.10557 23.2026 8.67709 24.1432 10.4013 24.6818L11.2958 21.8183L12.1903 18.9548C11.3736 18.6996 10.6292 18.2541 10.0184 17.6548L7.91732 19.7962ZM11.2958 21.8183L10.4013 24.6818C12.1255 25.2204 13.953 25.3416 15.7332 25.0354L15.2245 22.0788L14.7159 19.1222C13.8727 19.2673 13.007 19.2099 12.1903 18.9548L11.2958 21.8183ZM15.2245 22.0788L15.7332 25.0354C17.5134 24.7291 19.1953 24.0042 20.6404 22.9204L18.8404 20.5204L17.0404 18.1204C16.3559 18.6338 15.5592 18.9771 14.7159 19.1222L15.2245 22.0788ZM18.8404 20.5204L16.4422 22.3228C16.5617 22.4818 16.6923 22.6321 16.8331 22.7725L18.952 20.6488L21.0709 18.5251C21.1313 18.5853 21.1873 18.6498 21.2386 18.718L18.8404 20.5204ZM18.952 20.6488L16.8307 22.7701L20.4307 26.3701L22.552 24.2488L24.6733 22.1275L21.0733 18.5275L18.952 20.6488ZM22.552 24.2488L20.4679 26.4067C21.26 27.1717 22.3209 27.5951 23.4221 27.5855L23.3961 24.5856L23.37 21.5857C23.842 21.5816 24.2966 21.763 24.6361 22.0909L22.552 24.2488ZM23.3961 24.5856L23.4221 27.5855C24.5234 27.5759 25.5768 27.1342 26.3555 26.3555L24.2342 24.2342L22.1129 22.1129C22.4466 21.7791 22.898 21.5898 23.37 21.5857L23.3961 24.5856ZM24.2342 24.2342L26.3555 26.3555C27.1342 25.5768 27.5759 24.5234 27.5855 23.4221L24.5856 23.3961L21.5857 23.37C21.5898 22.898 21.7791 22.4466 22.1129 22.1129L24.2342 24.2342ZM24.5856 23.3961L27.5855 23.4221C27.5951 22.3209 27.1717 21.26 26.4067 20.4679L24.2488 22.552L22.0909 24.6361C21.763 24.2966 21.5816 23.842 21.5857 23.37L24.5856 23.3961ZM24.2488 22.552L26.3701 20.4307L22.7701 16.8307L20.6488 18.952L18.5275 21.0733L22.1275 24.6733L24.2488 22.552ZM20.6488 18.952L22.7725 16.8331C22.6321 16.6923 22.4818 16.5617 22.3228 16.4422L20.5204 18.8404L18.718 21.2386C18.6498 21.1873 18.5853 21.1313 18.5251 21.0709L20.6488 18.952ZM20.5204 18.8404L22.9204 20.6404C24.1907 18.9467 24.9642 16.9327 25.1543 14.8242L22.1665 14.5548L19.1786 14.2853C19.0885 15.2841 18.7221 16.2381 18.1204 17.0404L20.5204 18.8404ZM22.1665 14.5548L25.1543 14.8242C25.3445 12.7156 24.9437 10.5958 23.9969 8.70216L21.3136 10.0438L18.6303 11.3854C19.0788 12.2824 19.2686 13.2865 19.1786 14.2853L22.1665 14.5548ZM21.3136 10.0438L23.9969 8.70216C23.0501 6.80855 21.5947 5.21601 19.7937 4.10297L18.2165 6.65492L16.6393 9.20688C17.4924 9.7341 18.1818 10.4885 18.6303 11.3854L21.3136 10.0438ZM18.2165 6.65492L19.7937 4.10297C17.9928 2.98994 15.9175 2.40039 13.8004 2.40039V5.40039V8.40039C14.8032 8.40039 15.7863 8.67965 16.6393 9.20688L18.2165 6.65492ZM12.6004 10.8004H15.6004C15.6004 11.2778 15.4107 11.7356 15.0732 12.0732L12.9519 9.95186L10.8305 7.83054C10.0429 8.61819 9.60039 9.68648 9.60039 10.8004H12.6004ZM12.9519 9.95186L15.0732 12.0732C14.7356 12.4107 14.2778 12.6004 13.8004 12.6004V9.60039V6.60039C12.6865 6.60039 11.6182 7.04289 10.8305 7.83054L12.9519 9.95186ZM13.8004 9.60039V12.6004C13.323 12.6004 12.8652 12.4107 12.5276 12.0732L14.6489 9.95186L16.7702 7.83054C15.9826 7.04289 14.9143 6.60039 13.8004 6.60039V9.60039ZM14.6489 9.95186L12.5276 12.0732C12.19 11.7356 12.0004 11.2778 12.0004 10.8004H15.0004H18.0004C18.0004 9.68648 17.5579 8.61819 16.7702 7.83054L14.6489 9.95186ZM15.0004 10.8004H12.0004V12.6004H15.0004H18.0004V10.8004H15.0004ZM15.0004 12.6004V15.6004H16.8004V12.6004V9.60039H15.0004V12.6004ZM16.8004 12.6004V15.6004C16.323 15.6004 15.8652 15.4107 15.5276 15.0732L17.6489 12.9519L19.7702 10.8305C18.9826 10.0429 17.9143 9.60039 16.8004 9.60039V12.6004ZM17.6489 12.9519L15.5276 15.0732C15.19 14.7356 15.0004 14.2778 15.0004 13.8004H18.0004H21.0004C21.0004 12.6865 20.5579 11.6182 19.7702 10.8305L17.6489 12.9519ZM18.0004 13.8004H15.0004C15.0004 13.323 15.19 12.8652 15.5276 12.5276L17.6489 14.6489L19.7702 16.7702C20.5579 15.9826 21.0004 14.9143 21.0004 13.8004H18.0004ZM17.6489 14.6489L15.5276 12.5276C15.8652 12.19 16.323 12.0004 16.8004 12.0004V15.0004V18.0004C17.9143 18.0004 18.9826 17.5579 19.7702 16.7702L17.6489 14.6489ZM16.8004 15.0004V12.0004H15.0004V15.0004V18.0004H16.8004V15.0004ZM15.0004 15.0004H12.0004V16.8004H15.0004H18.0004V15.0004H15.0004ZM15.0004 16.8004H12.0004C12.0004 16.323 12.19 15.8652 12.5276 15.5276L14.6489 17.6489L16.7702 19.7702C17.5579 18.9826 18.0004 17.9143 18.0004 16.8004H15.0004ZM14.6489 17.6489L12.5276 15.5276C12.8652 15.19 13.323 15.0004 13.8004 15.0004V18.0004V21.0004C14.9143 21.0004 15.9826 20.5579 16.7702 19.7702L14.6489 17.6489ZM13.8004 18.0004V15.0004C14.2778 15.0004 14.7356 15.19 15.0732 15.5276L12.9519 17.6489L10.8305 19.7702C11.6182 20.5579 12.6865 21.0004 13.8004 21.0004V18.0004ZM12.9519 17.6489L15.0732 15.5276C15.4107 15.8652 15.6004 16.323 15.6004 16.8004H12.6004H9.60039C9.60039 17.9143 10.0429 18.9826 10.8305 19.7702L12.9519 17.6489ZM12.6004 16.8004H15.6004V15.0004H12.6004H9.60039V16.8004H12.6004ZM12.6004 15.0004V12.0004H10.8004V15.0004V18.0004H12.6004V15.0004ZM10.8004 15.0004V12.0004C11.2778 12.0004 11.7356 12.19 12.0732 12.5276L9.95186 14.6489L7.83054 16.7702C8.6182 17.5579 9.68648 18.0004 10.8004 18.0004V15.0004ZM9.95186 14.6489L12.0732 12.5276C12.4107 12.8652 12.6004 13.323 12.6004 13.8004H9.60039H6.60039C6.60039 14.9143 7.04289 15.9826 7.83054 16.7702L9.95186 14.6489ZM9.60039 13.8004H12.6004C12.6004 14.2778 12.4107 14.7356 12.0732 15.0732L9.95186 12.9519L7.83054 10.8305C7.04289 11.6182 6.60039 12.6865 6.60039 13.8004H9.60039ZM9.95186 12.9519L12.0732 15.0732C11.7356 15.4107 11.2778 15.6004 10.8004 15.6004V12.6004V9.60039C9.68648 9.60039 8.6182 10.0429 7.83054 10.8305L9.95186 12.9519ZM10.8004 12.6004V15.6004H12.6004V12.6004V9.60039H10.8004V12.6004ZM12.6004 12.6004H15.6004V10.8004H12.6004H9.60039V12.6004H12.6004Z" fill="black" mask="url(#path-2-inside-1_4362_18168)"/>
</svg>
