<svg width="24" height="24" viewBox="0 0 24 24" fill="none" xmlns="http://www.w3.org/2000/svg">
<mask id="path-1-inside-1_7019_22455" fill="currentColor">
<path fill-rule="evenodd" clip-rule="evenodd" d="M4.80039 10.7999C4.80039 9.2086 5.43253 7.68248 6.55775 6.55726C7.68297 5.43204 9.20909 4.7999 10.8004 4.7999C12.3917 4.7999 13.9178 5.43204 15.043 6.55726C16.1683 7.68248 16.8004 9.2086 16.8004 10.7999C16.8004 12.3912 16.1683 13.9173 15.043 15.0425C13.9178 16.1678 12.3917 16.7999 10.8004 16.7999C9.20909 16.7999 7.68297 16.1678 6.55775 15.0425C5.43253 13.9173 4.80039 12.3912 4.80039 10.7999ZM10.8004 2.3999C9.4694 2.3999 8.15745 2.71619 6.97267 3.3227C5.7879 3.92921 4.7642 4.80858 3.98596 5.88834C3.20771 6.9681 2.69719 8.21734 2.49646 9.53311C2.29574 10.8489 2.41055 12.1935 2.83145 13.4562C3.25235 14.7189 3.96728 15.8635 4.91732 16.7957C5.86737 17.7279 7.02533 18.421 8.29578 18.8178C9.56624 19.2147 10.9128 19.304 12.2245 19.0783C13.5363 18.8526 14.7756 18.3185 15.8404 17.5199C15.8745 17.5653 15.9118 17.6082 15.952 17.6483L19.552 21.2483C19.7783 21.4669 20.0814 21.5878 20.3961 21.5851C20.7107 21.5824 21.0117 21.4562 21.2342 21.2337C21.4567 21.0112 21.5829 20.7102 21.5856 20.3956C21.5883 20.0809 21.4674 19.7778 21.2488 19.5515L17.6488 15.9515C17.6087 15.9113 17.5658 15.874 17.5204 15.8399C18.4564 14.5919 19.0264 13.1079 19.1665 11.5543C19.3065 10.0006 19.0112 8.4386 18.3136 7.04331C17.6159 5.64802 16.5435 4.47457 15.2165 3.65444C13.8895 2.83431 12.3604 2.3999 10.8004 2.3999ZM9.60039 7.7999C9.60039 7.48164 9.72682 7.17642 9.95186 6.95137C10.1769 6.72633 10.4821 6.5999 10.8004 6.5999C11.1187 6.5999 11.4239 6.72633 11.6489 6.95137C11.874 7.17642 12.0004 7.48164 12.0004 7.7999V9.5999H13.8004C14.1187 9.5999 14.4239 9.72633 14.6489 9.95137C14.874 10.1764 15.0004 10.4816 15.0004 10.7999C15.0004 11.1182 14.874 11.4234 14.6489 11.6484C14.4239 11.8735 14.1187 11.9999 13.8004 11.9999H12.0004V13.7999C12.0004 14.1182 11.874 14.4234 11.6489 14.6484C11.4239 14.8735 11.1187 14.9999 10.8004 14.9999C10.4821 14.9999 10.1769 14.8735 9.95186 14.6484C9.72682 14.4234 9.60039 14.1182 9.60039 13.7999V11.9999H7.80039C7.48213 11.9999 7.17691 11.8735 6.95186 11.6484C6.72682 11.4234 6.60039 11.1182 6.60039 10.7999C6.60039 10.4816 6.72682 10.1764 6.95186 9.95137C7.17691 9.72633 7.48213 9.5999 7.80039 9.5999H9.60039V7.7999Z"/>
</mask>
<path fill-rule="evenodd" clip-rule="evenodd" d="M4.80039 10.7999C4.80039 9.2086 5.43253 7.68248 6.55775 6.55726C7.68297 5.43204 9.20909 4.7999 10.8004 4.7999C12.3917 4.7999 13.9178 5.43204 15.043 6.55726C16.1683 7.68248 16.8004 9.2086 16.8004 10.7999C16.8004 12.3912 16.1683 13.9173 15.043 15.0425C13.9178 16.1678 12.3917 16.7999 10.8004 16.7999C9.20909 16.7999 7.68297 16.1678 6.55775 15.0425C5.43253 13.9173 4.80039 12.3912 4.80039 10.7999ZM10.8004 2.3999C9.4694 2.3999 8.15745 2.71619 6.97267 3.3227C5.7879 3.92921 4.7642 4.80858 3.98596 5.88834C3.20771 6.9681 2.69719 8.21734 2.49646 9.53311C2.29574 10.8489 2.41055 12.1935 2.83145 13.4562C3.25235 14.7189 3.96728 15.8635 4.91732 16.7957C5.86737 17.7279 7.02533 18.421 8.29578 18.8178C9.56624 19.2147 10.9128 19.304 12.2245 19.0783C13.5363 18.8526 14.7756 18.3185 15.8404 17.5199C15.8745 17.5653 15.9118 17.6082 15.952 17.6483L19.552 21.2483C19.7783 21.4669 20.0814 21.5878 20.3961 21.5851C20.7107 21.5824 21.0117 21.4562 21.2342 21.2337C21.4567 21.0112 21.5829 20.7102 21.5856 20.3956C21.5883 20.0809 21.4674 19.7778 21.2488 19.5515L17.6488 15.9515C17.6087 15.9113 17.5658 15.874 17.5204 15.8399C18.4564 14.5919 19.0264 13.1079 19.1665 11.5543C19.3065 10.0006 19.0112 8.4386 18.3136 7.04331C17.6159 5.64802 16.5435 4.47457 15.2165 3.65444C13.8895 2.83431 12.3604 2.3999 10.8004 2.3999ZM9.60039 7.7999C9.60039 7.48164 9.72682 7.17642 9.95186 6.95137C10.1769 6.72633 10.4821 6.5999 10.8004 6.5999C11.1187 6.5999 11.4239 6.72633 11.6489 6.95137C11.874 7.17642 12.0004 7.48164 12.0004 7.7999V9.5999H13.8004C14.1187 9.5999 14.4239 9.72633 14.6489 9.95137C14.874 10.1764 15.0004 10.4816 15.0004 10.7999C15.0004 11.1182 14.874 11.4234 14.6489 11.6484C14.4239 11.8735 14.1187 11.9999 13.8004 11.9999H12.0004V13.7999C12.0004 14.1182 11.874 14.4234 11.6489 14.6484C11.4239 14.8735 11.1187 14.9999 10.8004 14.9999C10.4821 14.9999 10.1769 14.8735 9.95186 14.6484C9.72682 14.4234 9.60039 14.1182 9.60039 13.7999V11.9999H7.80039C7.48213 11.9999 7.17691 11.8735 6.95186 11.6484C6.72682 11.4234 6.60039 11.1182 6.60039 10.7999C6.60039 10.4816 6.72682 10.1764 6.95186 9.95137C7.17691 9.72633 7.48213 9.5999 7.80039 9.5999H9.60039V7.7999Z" fill="currentColor"/>
<path d="M4.80039 10.7999H1.80039H4.80039ZM16.8004 10.7999H19.8004H16.8004ZM10.8004 16.7999V19.7999V16.7999ZM10.8004 2.3999V5.3999V2.3999ZM15.8404 17.5199L18.2386 15.7175L16.438 13.3217L14.0404 15.1199L15.8404 17.5199ZM15.952 17.6483L18.0733 15.527L18.0709 15.5246L15.952 17.6483ZM19.552 21.2483L17.4307 23.3696L17.4491 23.3881L17.4679 23.4062L19.552 21.2483ZM21.2488 19.5515L23.4067 17.4674L23.3885 17.4486L23.3701 17.4302L21.2488 19.5515ZM17.6488 15.9515L15.5251 18.0704L15.5275 18.0728L17.6488 15.9515ZM17.5204 15.8399L15.1204 14.0399L13.3222 16.4375L15.718 18.2381L17.5204 15.8399ZM9.60039 7.7999H12.6004H9.60039ZM10.8004 6.5999V9.5999V6.5999ZM12.0004 9.5999H9.00039V12.5999H12.0004V9.5999ZM13.8004 9.5999V12.5999V9.5999ZM12.0004 11.9999V8.9999H9.00039V11.9999H12.0004ZM9.60039 13.7999H12.6004H9.60039ZM9.60039 11.9999H12.6004V8.9999H9.60039V11.9999ZM7.80039 9.5999V12.5999V9.5999ZM9.60039 9.5999V12.5999H12.6004V9.5999H9.60039ZM4.80039 10.7999H7.80039C7.80039 10.0043 8.11646 9.24119 8.67907 8.67858L6.55775 6.55726L4.43643 4.43594C2.7486 6.12377 1.80039 8.41295 1.80039 10.7999H4.80039ZM6.55775 6.55726L8.67907 8.67858C9.24168 8.11597 10.0047 7.7999 10.8004 7.7999V4.7999V1.7999C8.41344 1.7999 6.12426 2.74811 4.43643 4.43594L6.55775 6.55726ZM10.8004 4.7999V7.7999C11.596 7.7999 12.3591 8.11597 12.9217 8.67858L15.043 6.55726L17.1644 4.43594C15.4765 2.74811 13.1873 1.7999 10.8004 1.7999V4.7999ZM15.043 6.55726L12.9217 8.67858C13.4843 9.24119 13.8004 10.0043 13.8004 10.7999H16.8004H19.8004C19.8004 8.41295 18.8522 6.12377 17.1644 4.43594L15.043 6.55726ZM16.8004 10.7999H13.8004C13.8004 11.5956 13.4843 12.3586 12.9217 12.9212L15.043 15.0425L17.1644 17.1639C18.8522 15.476 19.8004 13.1869 19.8004 10.7999H16.8004ZM15.043 15.0425L12.9217 12.9212C12.3591 13.4838 11.596 13.7999 10.8004 13.7999V16.7999V19.7999C13.1873 19.7999 15.4765 18.8517 17.1644 17.1639L15.043 15.0425ZM10.8004 16.7999V13.7999C10.0047 13.7999 9.24168 13.4838 8.67907 12.9212L6.55775 15.0425L4.43643 17.1639C6.12426 18.8517 8.41344 19.7999 10.8004 19.7999V16.7999ZM6.55775 15.0425L8.67907 12.9212C8.11646 12.3586 7.80039 11.5956 7.80039 10.7999H4.80039H1.80039C1.80039 13.1869 2.7486 15.476 4.43643 17.1639L6.55775 15.0425ZM10.8004 2.3999V-0.600098C8.99404 -0.600098 7.21354 -0.170851 5.60563 0.652268L6.97267 3.3227L8.33972 5.99313C9.10136 5.60323 9.94475 5.3999 10.8004 5.3999V2.3999ZM6.97267 3.3227L5.60563 0.652268C3.99772 1.47539 2.60842 2.66882 1.55223 4.1342L3.98596 5.88834L6.41968 7.64247C6.91999 6.94834 7.57807 6.38303 8.33972 5.99313L6.97267 3.3227ZM3.98596 5.88834L1.55223 4.1342C0.496039 5.59959 -0.196813 7.29499 -0.469226 9.08068L2.49646 9.53311L5.46215 9.98554C5.59119 9.13968 5.91938 8.3366 6.41968 7.64247L3.98596 5.88834ZM2.49646 9.53311L-0.469226 9.08068C-0.74164 10.8664 -0.585816 12.6912 -0.0145977 14.4049L2.83145 13.4562L5.6775 12.5075C5.40692 11.6958 5.33311 10.8314 5.46215 9.98554L2.49646 9.53311ZM2.83145 13.4562L-0.0145977 14.4049C0.556621 16.1186 1.52688 17.6719 2.81623 18.937L4.91732 16.7957L7.01842 14.6543C6.40768 14.0551 5.94808 13.3193 5.6775 12.5075L2.83145 13.4562ZM4.91732 16.7957L2.81623 18.937C4.10557 20.2022 5.67709 21.1428 7.40128 21.6814L8.29578 18.8178L9.19029 15.9543C8.37357 15.6992 7.62916 15.2536 7.01842 14.6543L4.91732 16.7957ZM8.29578 18.8178L7.40128 21.6814C9.12547 22.22 10.953 22.3411 12.7332 22.0349L12.2245 19.0783L11.7159 16.1217C10.8727 16.2668 10.007 16.2094 9.19029 15.9543L8.29578 18.8178ZM12.2245 19.0783L12.7332 22.0349C14.5134 21.7286 16.1953 21.0037 17.6404 19.9199L15.8404 17.5199L14.0404 15.1199C13.3559 15.6333 12.5592 15.9767 11.7159 16.1217L12.2245 19.0783ZM15.8404 17.5199L13.4422 19.3223C13.5617 19.4813 13.6923 19.6316 13.8331 19.772L15.952 17.6483L18.0709 15.5246C18.1313 15.5848 18.1873 15.6493 18.2386 15.7175L15.8404 17.5199ZM15.952 17.6483L13.8307 19.7696L17.4307 23.3696L19.552 21.2483L21.6733 19.127L18.0733 15.527L15.952 17.6483ZM19.552 21.2483L17.4679 23.4062C18.26 24.1712 19.3209 24.5946 20.4221 24.585L20.3961 21.5851L20.37 18.5852C20.842 18.5811 21.2966 18.7626 21.6361 19.0904L19.552 21.2483ZM20.3961 21.5851L20.4221 24.585C21.5234 24.5754 22.5768 24.1337 23.3555 23.355L21.2342 21.2337L19.1129 19.1124C19.4466 18.7786 19.898 18.5893 20.37 18.5852L20.3961 21.5851ZM21.2342 21.2337L23.3555 23.355C24.1342 22.5763 24.5759 21.5229 24.5855 20.4216L21.5856 20.3956L18.5857 20.3695C18.5898 19.8976 18.7791 19.4461 19.1129 19.1124L21.2342 21.2337ZM21.5856 20.3956L24.5855 20.4216C24.5951 19.3204 24.1717 18.2595 23.4067 17.4674L21.2488 19.5515L19.0909 21.6356C18.763 21.2962 18.5816 20.8415 18.5857 20.3695L21.5856 20.3956ZM21.2488 19.5515L23.3701 17.4302L19.7701 13.8302L17.6488 15.9515L15.5275 18.0728L19.1275 21.6728L21.2488 19.5515ZM17.6488 15.9515L19.7725 13.8326C19.6321 13.6918 19.4818 13.5612 19.3228 13.4417L17.5204 15.8399L15.718 18.2381C15.6498 18.1868 15.5853 18.1308 15.5251 18.0704L17.6488 15.9515ZM17.5204 15.8399L19.9204 17.6399C21.1907 15.9462 21.9642 13.9322 22.1543 11.8237L19.1665 11.5543L16.1786 11.2849C16.0885 12.2836 15.7221 13.2376 15.1204 14.0399L17.5204 15.8399ZM19.1665 11.5543L22.1543 11.8237C22.3445 9.71512 21.9437 7.59527 20.9969 5.70167L18.3136 7.04331L15.6303 8.38495C16.0788 9.28192 16.2686 10.2861 16.1786 11.2849L19.1665 11.5543ZM18.3136 7.04331L20.9969 5.70167C20.0501 3.80806 18.5947 2.21552 16.7937 1.10248L15.2165 3.65444L13.6393 6.20639C14.4924 6.73361 15.1818 7.48798 15.6303 8.38495L18.3136 7.04331ZM15.2165 3.65444L16.7937 1.10248C14.9928 -0.010551 12.9175 -0.600098 10.8004 -0.600098V2.3999V5.3999C11.8032 5.3999 12.7863 5.67916 13.6393 6.20639L15.2165 3.65444ZM9.60039 7.7999H12.6004C12.6004 8.27729 12.4107 8.73513 12.0732 9.07269L9.95186 6.95137L7.83054 4.83005C7.04289 5.6177 6.60039 6.68599 6.60039 7.7999H9.60039ZM9.95186 6.95137L12.0732 9.07269C11.7356 9.41026 11.2778 9.5999 10.8004 9.5999V6.5999V3.5999C9.68648 3.5999 8.6182 4.0424 7.83054 4.83005L9.95186 6.95137ZM10.8004 6.5999V9.5999C10.323 9.5999 9.86516 9.41026 9.5276 9.07269L11.6489 6.95137L13.7702 4.83005C12.9826 4.0424 11.9143 3.5999 10.8004 3.5999V6.5999ZM11.6489 6.95137L9.5276 9.07269C9.19004 8.73513 9.00039 8.27729 9.00039 7.7999H12.0004H15.0004C15.0004 6.68599 14.5579 5.6177 13.7702 4.83005L11.6489 6.95137ZM12.0004 7.7999H9.00039V9.5999H12.0004H15.0004V7.7999H12.0004ZM12.0004 9.5999V12.5999H13.8004V9.5999V6.5999H12.0004V9.5999ZM13.8004 9.5999V12.5999C13.323 12.5999 12.8652 12.4103 12.5276 12.0727L14.6489 9.95137L16.7702 7.83005C15.9826 7.0424 14.9143 6.5999 13.8004 6.5999V9.5999ZM14.6489 9.95137L12.5276 12.0727C12.19 11.7351 12.0004 11.2773 12.0004 10.7999H15.0004H18.0004C18.0004 9.68599 17.5579 8.6177 16.7702 7.83005L14.6489 9.95137ZM15.0004 10.7999H12.0004C12.0004 10.3225 12.19 9.86467 12.5276 9.52711L14.6489 11.6484L16.7702 13.7698C17.5579 12.9821 18.0004 11.9138 18.0004 10.7999H15.0004ZM14.6489 11.6484L12.5276 9.52711C12.8652 9.18955 13.323 8.9999 13.8004 8.9999V11.9999V14.9999C14.9143 14.9999 15.9826 14.5574 16.7702 13.7698L14.6489 11.6484ZM13.8004 11.9999V8.9999H12.0004V11.9999V14.9999H13.8004V11.9999ZM12.0004 11.9999H9.00039V13.7999H12.0004H15.0004V11.9999H12.0004ZM12.0004 13.7999H9.00039C9.00039 13.3225 9.19004 12.8647 9.5276 12.5271L11.6489 14.6484L13.7702 16.7697C14.5579 15.9821 15.0004 14.9138 15.0004 13.7999H12.0004ZM11.6489 14.6484L9.5276 12.5271C9.86516 12.1895 10.323 11.9999 10.8004 11.9999V14.9999V17.9999C11.9143 17.9999 12.9826 17.5574 13.7702 16.7697L11.6489 14.6484ZM10.8004 14.9999V11.9999C11.2778 11.9999 11.7356 12.1895 12.0732 12.5271L9.95186 14.6484L7.83054 16.7697C8.6182 17.5574 9.68648 17.9999 10.8004 17.9999V14.9999ZM9.95186 14.6484L12.0732 12.5271C12.4107 12.8647 12.6004 13.3225 12.6004 13.7999H9.60039H6.60039C6.60039 14.9138 7.04289 15.9821 7.83054 16.7697L9.95186 14.6484ZM9.60039 13.7999H12.6004V11.9999H9.60039H6.60039V13.7999H9.60039ZM9.60039 11.9999V8.9999H7.80039V11.9999V14.9999H9.60039V11.9999ZM7.80039 11.9999V8.9999C8.27778 8.9999 8.73562 9.18955 9.07318 9.52711L6.95186 11.6484L4.83054 13.7698C5.6182 14.5574 6.68648 14.9999 7.80039 14.9999V11.9999ZM6.95186 11.6484L9.07318 9.52711C9.41075 9.86467 9.60039 10.3225 9.60039 10.7999H6.60039H3.60039C3.60039 11.9138 4.04289 12.9821 4.83054 13.7698L6.95186 11.6484ZM6.60039 10.7999H9.60039C9.60039 11.2773 9.41075 11.7351 9.07318 12.0727L6.95186 9.95137L4.83054 7.83005C4.04289 8.6177 3.60039 9.68599 3.60039 10.7999H6.60039ZM6.95186 9.95137L9.07318 12.0727C8.73562 12.4103 8.27778 12.5999 7.80039 12.5999V9.5999V6.5999C6.68648 6.5999 5.6182 7.0424 4.83054 7.83005L6.95186 9.95137ZM7.80039 9.5999V12.5999H9.60039V9.5999V6.5999H7.80039V9.5999ZM9.60039 9.5999H12.6004V7.7999H9.60039H6.60039V9.5999H9.60039Z" fill="currentColor" mask="url(#path-1-inside-1_7019_22455)"/>
</svg>
